<svg preserveAspectRatio="none" width="100%" height="100%" overflow="visible" style="display: block;" viewBox="0 0 36 36" fill="none" xmlns="http://www.w3.org/2000/svg">
<g id="gg:menu-left">
<path id="Vector" d="M3 8.9925C3 8.1675 3.669 7.5 4.4925 7.5H16.5075C16.9033 7.5 17.283 7.65724 17.5629 7.93714C17.8428 8.21704 18 8.59666 18 8.9925C18 9.38834 17.8428 9.76796 17.5629 10.0479C17.283 10.3278 16.9033 10.485 16.5075 10.485H4.4925C4.09666 10.485 3.71704 10.3278 3.43714 10.0479C3.15725 9.76796 3 9.38834 3 8.9925ZM3 18C3 17.175 3.669 16.5075 4.4925 16.5075H31.5075C31.9033 16.5075 32.283 16.6647 32.5629 16.9446C32.8428 17.2245 33 17.6042 33 18C33 18.3958 32.8428 18.7755 32.5629 19.0554C32.283 19.3353 31.9033 19.4925 31.5075 19.4925H4.4925C4.09666 19.4925 3.71704 19.3353 3.43714 19.0554C3.15725 18.7755 3 18.3958 3 18ZM4.4925 25.515C4.09666 25.515 3.71704 25.6722 3.43714 25.9521C3.15725 26.232 3 26.6117 3 27.0075C3 27.4033 3.15725 27.783 3.43714 28.0629C3.71704 28.3428 4.09666 28.5 4.4925 28.5H22.5075C22.9033 28.5 23.283 28.3428 23.5629 28.0629C23.8428 27.783 24 27.4033 24 27.0075C24 26.6117 23.8428 26.232 23.5629 25.9521C23.283 25.6722 22.9033 25.515 22.5075 25.515H4.4925Z" fill="var(--fill-0, #2E2E2E)"/>
</g>
</svg>
