<svg preserveAspectRatio="none" width="100%" height="100%" overflow="visible" style="display: block;" viewBox="0 0 28 28" fill="none" xmlns="http://www.w3.org/2000/svg">
<g id="la:telegram-plane">
<path id="Vector" d="M22.8113 3.4965C22.5304 3.51733 22.2548 3.58322 21.9949 3.69163H21.9914C21.742 3.7905 20.5564 4.28925 18.7539 5.04525L12.2946 7.76562C7.65975 9.71687 3.10362 11.6384 3.10362 11.6384L3.15787 11.6174C3.15787 11.6174 2.84375 11.7206 2.51562 11.9455C2.31245 12.0739 2.13791 12.2428 2.00287 12.4416C1.84187 12.6779 1.71237 13.0392 1.7605 13.4129C1.83925 14.0446 2.24875 14.4235 2.54275 14.6326C2.84025 14.8444 3.12375 14.9432 3.12375 14.9432H3.13075L7.40338 16.3826C7.595 16.9977 8.70537 20.6482 8.97225 21.4891C9.12975 21.9914 9.28288 22.3055 9.4745 22.5453C9.56608 22.6678 9.67662 22.7701 9.80612 22.8524C9.87339 22.8928 9.94579 22.924 10.0214 22.9451L9.97762 22.9346C9.99075 22.9381 10.0013 22.9486 10.0109 22.9521C10.0459 22.9618 10.0695 22.9652 10.1141 22.9722C10.7905 23.177 11.3339 22.757 11.3339 22.757L11.3645 22.7325L13.8871 20.4356L18.1151 23.6792L18.2114 23.7204C19.0925 24.1071 19.985 23.8919 20.4566 23.5121C20.9318 23.1297 21.1164 22.6406 21.1164 22.6406L21.147 22.5619L24.4143 5.824C24.507 5.411 24.5306 5.02425 24.4283 4.64888C24.3232 4.26871 24.0793 3.94179 23.7449 3.73275C23.4644 3.56212 23.1391 3.47981 22.8113 3.4965ZM22.7229 5.29025C22.7194 5.34537 22.7299 5.33925 22.7054 5.44513V5.45475L19.4688 22.0185C19.4548 22.0421 19.4311 22.0937 19.3664 22.1454C19.2981 22.1996 19.2439 22.2337 18.9595 22.1209L13.7883 18.1562L10.6645 21.0035L11.3207 16.8122L19.7698 8.93725C20.118 8.6135 20.0016 8.54525 20.0016 8.54525C20.0261 8.148 19.4758 8.42888 19.4758 8.42888L8.82175 15.029L8.81825 15.0115L3.71175 13.2921V13.2886L3.69863 13.286L3.72488 13.2755L3.75288 13.2615L3.78 13.2519C3.78 13.2519 8.33963 11.3304 12.9745 9.37912C15.295 8.40175 17.633 7.41738 19.4311 6.65788C20.4975 6.209 21.565 5.76275 22.6336 5.31912C22.7054 5.29112 22.6713 5.29025 22.7229 5.29025Z" fill="var(--fill-0, #020003)"/>
</g>
</svg>
