<svg preserveAspectRatio="none" width="100%" height="100%" overflow="visible" style="display: block;" viewBox="0 0 30 30" fill="none" xmlns="http://www.w3.org/2000/svg">
<g id="logos:telegram">
<rect width="30" height="30" rx="15" fill="var(--fill-0, #2AABEE)"/>
<path id="Vector" d="M15 6C12.6136 6 10.3228 6.9488 8.63672 8.63602C6.9489 10.3239 6.00048 12.613 6 15C6 17.386 6.94922 19.6768 8.63672 21.364C10.3228 23.0512 12.6136 24 15 24C17.3864 24 19.6772 23.0512 21.3633 21.364C23.0508 19.6768 24 17.386 24 15C24 12.614 23.0508 10.3232 21.3633 8.63602C19.6772 6.9488 17.3864 6 15 6Z" fill="url(#paint0_linear_3002_597)"/>
<path id="Vector_2" d="M7.96229 14.7355C11.7211 13.1833 14.227 12.1599 15.4799 11.6654C19.0614 10.2536 19.8047 10.0084 20.2902 10.0001C20.397 9.99845 20.6347 10.0235 20.7898 10.1423C20.9187 10.2426 20.9549 10.3782 20.9731 10.4734C20.9892 10.5685 21.0113 10.7852 20.9932 10.9544C20.7998 12.8871 19.9598 17.5769 19.5328 19.7416C19.3535 20.6575 18.997 20.9646 18.6525 20.9945C17.9032 21.0599 17.3351 20.5255 16.61 20.075C15.4759 19.3698 14.8353 18.9309 13.7334 18.2429C12.4604 17.4476 13.2863 17.0105 14.0114 16.2963C14.2008 16.1093 17.5003 13.2648 17.5627 13.0068C17.5708 12.9745 17.5789 12.8542 17.5023 12.7908C17.4278 12.7272 17.317 12.749 17.2364 12.7662C17.1216 12.7906 15.3107 13.9265 11.7976 16.1737C11.284 16.5086 10.8187 16.6719 10.3997 16.6633C9.94039 16.654 9.05407 16.4166 8.39538 16.2138C7.58963 15.965 6.94705 15.8334 7.00345 15.4108C7.03165 15.1908 7.35193 14.9656 7.96229 14.7355Z" fill="var(--fill-0, white)"/>
</g>
<defs>
<linearGradient id="paint0_linear_3002_597" x1="906" y1="6" x2="906" y2="1806" gradientUnits="userSpaceOnUse">
<stop stop-color="#2AABEE"/>
<stop offset="1" stop-color="#229ED9"/>
</linearGradient>
</defs>
</svg>
