<svg preserveAspectRatio="none" width="100%" height="100%" overflow="visible" style="display: block;" viewBox="0 0 28 28" fill="none" xmlns="http://www.w3.org/2000/svg">
<g id="uil:whatsapp">
<path id="Vector" d="M19.3667 16.3333C19.1333 16.2167 17.6167 15.5167 17.3833 15.4C17.15 15.2833 16.9167 15.2833 16.6833 15.5167C16.45 15.75 15.9833 16.45 15.75 16.6833C15.6333 16.9167 15.4 16.9167 15.1667 16.8C14.35 16.45 13.5333 15.9833 12.8333 15.4C12.25 14.8167 11.6667 14.1167 11.2 13.4167C11.0833 13.1833 11.2 12.95 11.3167 12.8333C11.4333 12.7167 11.55 12.4833 11.7833 12.3667C11.9 12.25 12.0167 12.0167 12.0167 11.9C12.1333 11.7833 12.1333 11.55 12.0167 11.4333C11.9 11.3167 11.3167 9.91667 11.0833 9.33333C10.9667 8.51667 10.7333 8.51667 10.5 8.51667H9.91667C9.68333 8.51667 9.33333 8.75 9.21667 8.86667C8.51667 9.56667 8.16667 10.3833 8.16667 11.3167C8.28333 12.3667 8.63333 13.4167 9.33333 14.35C10.6167 16.2167 12.25 17.7333 14.2333 18.6667C14.8167 18.9 15.2833 19.1333 15.8667 19.25C16.45 19.4833 17.0333 19.4833 17.7333 19.3667C18.55 19.25 19.25 18.6667 19.7167 17.9667C19.95 17.5 19.95 17.0333 19.8333 16.5667L19.3667 16.3333ZM22.2833 5.71667C17.7333 1.16667 10.3833 1.16667 5.83333 5.71667C2.1 9.45 1.4 15.1667 3.96667 19.7167L2.33333 25.6667L8.51667 24.0333C10.2667 24.9667 12.1333 25.4333 14 25.4333C20.4167 25.4333 25.55 20.3 25.55 13.8833C25.6667 10.85 24.3833 7.93333 22.2833 5.71667ZM19.1333 22.05C17.6167 22.9833 15.8667 23.5667 14 23.5667C12.25 23.5667 10.6167 23.1 9.1 22.2833L8.75 22.05L5.13333 22.9833L6.06667 19.4833L5.83333 19.1333C3.03333 14.4667 4.43333 8.63333 8.98333 5.71667C13.5333 2.8 19.3667 4.31667 22.1667 8.75C24.9667 13.3 23.6833 19.25 19.1333 22.05Z" fill="var(--fill-0, #020003)"/>
</g>
</svg>
