<svg preserveAspectRatio="none" width="100%" height="100%" overflow="visible" style="display: block;" viewBox="0 0 30 30" fill="none" xmlns="http://www.w3.org/2000/svg">
<g id="logos:whatsapp-icon">
<rect width="30" height="30" rx="15" fill="var(--fill-0, #60D669)"/>
<path id="Vector" d="M7.06668 14.8783C7.0663 16.2755 7.433 17.6397 8.13027 18.8421L7 22.9504L11.2233 21.848C12.3914 22.4811 13.7002 22.8128 15.0301 22.8129H15.0336C19.4241 22.8129 22.9981 19.2562 23 14.8846C23.0008 12.7662 22.1729 10.7742 20.6687 9.2756C19.1647 7.77708 17.1645 6.95138 15.0333 6.95041C10.6423 6.95041 7.06856 10.5069 7.06675 14.8783" fill="var(--fill-0, #FEFEFE)"/>
<path id="Vector_2" d="M7.06688 14.8784C7.06644 16.2757 7.43312 17.6398 8.13025 18.8421L7 22.9504L11.2232 21.848C12.3868 22.4796 13.6969 22.8127 15.0301 22.8131H15.0335C19.424 22.8131 22.9981 19.2561 23 14.8847C23.0008 12.7662 22.1727 10.7741 20.6687 9.27549C19.1646 7.77708 17.1646 6.95128 15.0335 6.95041C10.6422 6.95041 7.06863 10.507 7.06688 14.8784ZM9.58194 18.6351L9.42425 18.3859C8.76137 17.3366 8.4115 16.124 8.412 14.8789C8.41337 11.2455 11.3836 8.28941 15.036 8.28941C16.8048 8.29016 18.467 8.97658 19.7172 10.222C20.9674 11.4675 21.6554 13.1233 21.6549 14.8842C21.6533 18.5176 18.683 21.4741 15.0335 21.4741H15.0309C13.8426 21.4735 12.6771 21.1558 11.6607 20.5554L11.4189 20.4126L8.91275 21.0667L9.58194 18.6351Z" fill="var(--fill-0, #F5F5F5)"/>
<path id="Vector_3" d="M13.0339 11.3221C12.8864 10.9687 12.7312 10.9615 12.591 10.9553C12.4762 10.95 12.3449 10.9504 12.2138 10.9504C12.0825 10.9504 11.8692 11.0037 11.689 11.2159C11.5085 11.4283 11 11.9417 11 12.9858C11 14.03 11.7053 15.0391 11.8037 15.1809C11.9021 15.3223 13.1653 17.5336 15.166 18.3843C16.8287 19.0912 17.1671 18.9506 17.5279 18.9152C17.8888 18.8799 18.6925 18.402 18.8565 17.9064C19.0205 17.4109 19.0205 16.9861 18.9713 16.8974C18.9222 16.8089 18.7909 16.7558 18.594 16.6497C18.3972 16.5437 17.4295 16.0301 17.2491 15.9593C17.0686 15.8885 16.9374 15.8532 16.8061 16.0657C16.6749 16.2779 16.2979 16.7558 16.183 16.8974C16.0683 17.0392 15.9534 17.0569 15.7566 16.9507C15.5597 16.8443 14.9258 16.6204 14.1737 15.8975C13.5886 15.3349 13.1935 14.6402 13.0787 14.4277C12.9639 14.2156 13.0664 14.1005 13.1651 13.9948C13.2535 13.8997 13.362 13.747 13.4605 13.6231C13.5586 13.4991 13.5914 13.4107 13.657 13.2692C13.7227 13.1275 13.6898 13.0036 13.6407 12.8974C13.5914 12.7913 13.2089 11.7417 13.0339 11.3221Z" fill="var(--fill-0, #60D669)"/>
</g>
</svg>
