<svg xmlns="http://www.w3.org/2000/svg" viewBox="0 0 180 180" fill="none">
  <defs>
    <linearGradient id="redGradient" x1="0%" y1="0%" x2="100%" y2="100%">
      <stop offset="0%" style="stop-color:#EF4444"/>
      <stop offset="100%" style="stop-color:#DC2626"/>
    </linearGradient>
  </defs>
  <!-- Background for Apple touch icon -->
  <rect width="180" height="180" rx="40" fill="url(#redGradient)"/>
  <!-- Georgian Cross Symbol - scaled for 180x180 -->
  <g transform="translate(27, 27) scale(3.9375)">
    <path d="M16 3C8.82 3 3 8.82 3 16s5.82 13 13 13 13-5.82 13-13h-8v3h4.5c-1.2 3.8-4.7 6.5-8.5 6.5-5 0-9-4-9-9s4-9 9-9c2.5 0 4.7 1 6.4 2.6l2.1-2.1C22.3 5.8 19.3 4.5 16 4.5" fill="white" opacity="0.9"/>
    <rect x="14" y="10" width="4" height="12" rx="1" fill="white"/>
    <rect x="10" y="14" width="12" height="4" rx="1" fill="white"/>
  </g>
</svg>